<?xml version="1.0" encoding="UTF-8" standalone="no"?>
<!-- Generator: Adobe Illustrator 21.0.0, SVG Export Plug-In . SVG Version: 6.00 Build 0)  -->

<svg
   xmlns:dc="http://purl.org/dc/elements/1.1/"
   xmlns:cc="http://creativecommons.org/ns#"
   xmlns:rdf="http://www.w3.org/1999/02/22-rdf-syntax-ns#"
   xmlns:svg="http://www.w3.org/2000/svg"
   xmlns="http://www.w3.org/2000/svg"
   xmlns:sodipodi="http://sodipodi.sourceforge.net/DTD/sodipodi-0.dtd"
   xmlns:inkscape="http://www.inkscape.org/namespaces/inkscape"
   version="1.1"
   x="0px"
   y="0px"
   viewBox="0 0 283.465 283.632"
   enable-background="new 0 0 283.465 283.632"
   xml:space="preserve"
   id="svg2"
   inkscape:version="0.91 r13725"
   sodipodi:docname="icon_favicon_mato.svg"><title
     id="title4150">icon_favicon_mato</title><metadata
     id="metadata16"><rdf:RDF><cc:Work
         rdf:about=""><dc:format>image/svg+xml</dc:format><dc:type
           rdf:resource="http://purl.org/dc/dcmitype/StillImage" /><dc:title>icon_favicon_mato</dc:title></cc:Work></rdf:RDF></metadata><defs
     id="defs14" /><sodipodi:namedview
     pagecolor="#ffffff"
     bordercolor="#666666"
     borderopacity="1"
     objecttolerance="10"
     gridtolerance="10"
     guidetolerance="10"
     inkscape:pageopacity="0"
     inkscape:pageshadow="2"
     inkscape:window-width="1920"
     inkscape:window-height="1017"
     id="namedview12"
     showgrid="false"
     inkscape:zoom="1.6641282"
     inkscape:cx="196.5644"
     inkscape:cy="70.854929"
     inkscape:window-x="-8"
     inkscape:window-y="-8"
     inkscape:window-maximized="1"
     inkscape:current-layer="svg2" /><g
     id="bkg"
     display="none" /><path
     d="m 260.69312,62.768471 c -15.06533,-17.844454 -35.1177,-26.766689 -60.04721,-26.766689 -19.59375,0 -39.22047,9.185869 -58.81694,27.55208 -17.59731,-18.366211 -37.47666,-27.55208 -59.605103,-27.55208 -21.463874,0 -39.736728,7.708443 -54.796593,23.125301 C 12.359171,74.546689 4.821,93.272668 4.821,115.31598 l 0,120.73701 74.78579,0 0,-115.38202 c 0,-6.78024 5.462084,-12.29175 12.242317,-12.29175 6.79397,0 12.256053,5.51151 12.256053,12.29175 l 0,115.38202 74.78579,0 0,-115.38202 c 0,-6.78024 5.46207,-12.29175 12.24231,-12.29175 6.79397,0 12.25606,5.51151 12.25606,12.29175 l 0,115.38202 75.21418,0 0,-112.47112 c 0,-26.634857 -6.04701,-46.904175 -17.91038,-60.813399"
     style="fill:#4d8fd3;fill-opacity:1;fill-rule:nonzero;stroke:none"
     id="path22"
     inkscape:connector-curvature="0"
     inkscape:export-filename="C:\Users\castelli\Desktop\path22.png"
     inkscape:export-xdpi="91"
     inkscape:export-ydpi="91" /></svg>