<svg xmlns="http://www.w3.org/2000/svg" width="387.5" height="113.07" viewBox="0 0 387.50001 113.07"><path d="M341.976 91.474v19.062H279.85c-4.408 0-8.695-.573-12.804-1.712v-.023c-13.107-3.715-23.867-13.082-29.54-25.28v-.002c-.197-.215-.247-.433-.345-.65-.634-1.415-1.246-2.868-1.74-4.352-1.536-4.667-2.415-9.6-2.415-14.75V0h34.04v19.76h22.89v34.236h-22.89v9.332c0 4.188 1.75 7.953 4.5 10.703 2.75 2.75 6.59 4.42 10.777 4.42h33.572l26.082 13.024" fill="#f68723"/><path d="M116.47 31.66c-6.86-8.122-15.986-12.184-27.334-12.184-8.92 0-17.852 4.182-26.772 12.542-8.01-8.36-17.06-12.542-27.132-12.542-9.77 0-18.087 3.51-24.942 10.527C3.43 37.02 0 45.545 0 55.58v54.956h34.04v-52.52c0-3.086 2.487-5.595 5.574-5.595 3.092 0 5.578 2.51 5.578 5.596v52.52h34.042v-52.52c0-3.086 2.486-5.595 5.572-5.595 3.093 0 5.58 2.51 5.58 5.596v52.52h34.235V59.34c0-12.122-2.75-21.35-8.15-27.68" fill="#4d8fd3"/><path d="M225.57 64.953v1.32c0-.448-.003-.93-.015-1.32h.016" fill="#74b8e8"/><path d="M225.554 64.934c-.71-25.226-21.377-45.458-46.774-45.458-25.845 0-46.8 20.952-46.8 46.798 0 25.845 20.922 46.796 46.767 46.796 2.633 0 5.153-.217 7.697-.635V79.323c-2.153 1.346-4.875 2.118-7.703 2.118-8.375 0-15.15-6.79-15.15-15.166 0-8.378 6.8-15.17 15.18-15.17 8.35 0 15.092 6.75 15.136 15.087 0 .03-.03.056-.03.084v44.262h31.695V66.274c0-.45-.004-.895-.016-1.34" fill="#74b8e8"/><path d="M193.945 66.19V66.192" fill="#fff"/><path d="M242.51 87.94l-.298-.65.298.65" fill="#4d8fd3"/><path d="M341.952 81.46c-8.666 0-15.69-7.024-15.69-15.69 0-8.665 7.024-15.69 15.69-15.69 8.665 0 15.69 7.025 15.69 15.69 0 8.666-7.025 15.69-15.69 15.69zm0-61.984c-25.156 0-45.548 20.393-45.548 45.548s20.392 45.547 45.548 45.547c25.155 0 45.548-20.39 45.548-45.546 0-25.155-20.393-45.548-45.548-45.548" fill="#fbce19"/><path d="M341.952 43c-3.07 0-6.053.603-8.866 1.793-1.35.57-2.652 1.277-3.87 2.1-1.204.813-2.336 1.747-3.365 2.776-1.028 1.028-1.96 2.16-2.775 3.364-.823 1.217-1.53 2.52-2.1 3.87-1.19 2.812-1.794 5.796-1.794 8.866 0 3.07.605 6.054 1.794 8.866.57 1.35 1.278 2.653 2.1 3.87.815 1.204 1.748 2.337 2.777 3.365 1.03 1.03 2.162 1.964 3.366 2.778 1.218.822 2.52 1.53 3.87 2.1 2.813 1.19 5.795 1.792 8.866 1.792 3.07 0 6.054-.602 8.865-1.79 1.352-.572 2.653-1.28 3.872-2.102 1.202-.814 2.335-1.748 3.364-2.777 1.028-1.027 1.962-2.16 2.776-3.364.822-1.217 1.53-2.52 2.1-3.87 1.19-2.812 1.792-5.795 1.792-8.866 0-3.07-.602-6.054-1.792-8.865-.57-1.35-1.278-2.654-2.1-3.87-.814-1.205-1.748-2.337-2.776-3.366-1.03-1.03-2.162-1.964-3.365-2.777-1.22-.823-2.52-1.53-3.873-2.1-2.81-1.19-5.795-1.793-8.865-1.793zm0 7.08c8.665 0 15.69 7.025 15.69 15.69 0 8.666-7.025 15.69-15.69 15.69-8.666 0-15.69-7.024-15.69-15.69 0-8.665 7.024-15.69 15.69-15.69" fill="#333" fill-opacity=".941"/><path d="M-100.875 432.64c-4.18-4.954-9.746-7.43-16.666-7.43-5.44 0-10.888 2.55-16.326 7.648-4.885-5.1-10.403-7.648-16.545-7.648-5.96 0-11.03 2.14-15.21 6.42-4.183 4.278-6.275 9.476-6.275 15.594v33.512h20.757V448.71c0-1.88 1.517-3.41 3.4-3.41 1.884 0 3.4 1.53 3.4 3.41v32.026h20.758V448.71c0-1.88 1.516-3.41 3.4-3.41s3.4 1.53 3.4 3.41v32.026h20.877V449.52c0-7.394-1.678-13.02-4.972-16.88M-34.346 452.94v.805c0-.272-.002-.566-.01-.805h.01" fill="#fff"/><path d="M-34.356 452.93c-.433-15.384-13.035-27.72-28.523-27.72-15.76 0-28.535 12.775-28.535 28.535s12.757 28.536 28.517 28.536c1.605 0 3.142-.13 4.693-.386v-20.19c-1.313.82-2.973 1.29-4.696 1.29-5.11 0-9.24-4.14-9.24-9.25 0-5.106 4.146-9.248 9.255-9.248 5.09 0 9.204 4.114 9.23 9.2 0 .017-.018.033-.018.05v26.99h19.327v-26.99c0-.273-.003-.546-.01-.817M-53.63 453.696v0M-24.018 466.958l-.18-.397.18.398" fill="#fff"/><path d="M5.377 461.17H.26c-2.554 0-4.896-1.017-6.574-2.694-1.676-1.677-2.74-3.972-2.74-6.527v-5.69H4.9v-20.877H-9.055v-12.05h-20.758v38.883c0 3.14.535 6.15 1.473 8.995.3.906.674 1.79 1.06 2.655.06.133.09.264.21.396 3.46 7.44 10.02 13.153 18.015 15.42v.013c2.505.693 5.12 1.043 7.806 1.043h21.326c-7.174-4.286-12.534-11.28-14.7-19.565" fill="#fff"/><path d="M53.587 460.61c-.462 1.09-1.033 2.145-1.698 3.13-.66.974-1.415 1.89-2.248 2.72-.83.834-1.747 1.59-2.72 2.246-.986.665-2.038 1.238-3.13 1.7-2.276.962-4.688 1.45-7.17 1.45-2.485 0-4.897-.488-7.172-1.45-1.093-.462-2.145-1.035-3.13-1.7-.974-.657-1.89-1.412-2.72-2.245-.834-.83-1.59-1.746-2.248-2.72-.665-.985-1.236-2.04-1.698-3.13-.962-2.275-1.45-4.687-1.45-7.17 0-2.485.488-4.897 1.45-7.17.462-1.094 1.033-2.147 1.698-3.132.66-.974 1.414-1.89 2.247-2.722.83-.83 1.746-1.587 2.72-2.245.985-.664 2.037-1.236 3.13-1.697 2.275-.963 4.687-1.45 7.17-1.45 2.484 0 4.896.487 7.17 1.45 1.094.46 2.146 1.033 3.13 1.698.975.66 1.89 1.415 2.722 2.246.833.833 1.588 1.748 2.247 2.722.664.985 1.235 2.038 1.697 3.13.962 2.275 1.45 4.687 1.45 7.17 0 2.485-.488 4.897-1.45 7.17zm-16.966-35.4c-15.34 0-27.774 12.435-27.774 27.774 0 15.34 12.435 27.774 27.775 27.774 15.34 0 27.775-12.435 27.775-27.774 0-15.34-12.435-27.774-27.774-27.774M-167.513 493.265v2.1c.905-1.5 2.35-2.254 4.33-2.254 1.06 0 2.004.24 2.833.72.827.478 1.472 1.16 1.934 2.05.53-.837 1.217-1.51 2.063-2.012.845-.504 1.79-.757 2.832-.757 1.74 0 3.125.54 4.15 1.616 1.025 1.077 1.537 2.572 1.537 4.484v8.355h-4.356V499.8c0-.922-.243-1.636-.73-2.14-.486-.504-1.156-.756-2.01-.756-.855 0-1.525.252-2.013.756-.486.504-.73 1.218-.73 2.14v7.765h-4.356V499.8c0-.922-.243-1.636-.73-2.14-.486-.504-1.156-.756-2.01-.756-.855 0-1.525.252-2.013.756-.486.504-.73 1.218-.73 2.14v7.765h-4.382v-14.3h4.382M-134.918 493.265h4.383v14.3h-4.383v-2.1c-.905 1.5-2.348 2.254-4.33 2.254-1.64 0-2.968-.55-3.985-1.64-1.016-1.095-1.525-2.58-1.525-4.46v-8.355h4.357v7.765c0 .923.242 1.636.73 2.14.486.504 1.156.756 2.01.756.855 0 1.526-.252 2.012-.756.488-.504.73-1.217.73-2.14v-7.765M-118.62 503.08c.58-.615.872-1.502.872-2.665 0-1.16-.3-2.046-.897-2.652-.598-.607-1.306-.91-2.126-.91-.82 0-1.526.303-2.116.91-.59.606-.884 1.49-.884 2.652 0 1.163.304 2.05.91 2.665.606.615 1.32.923 2.14.923.82 0 1.52-.308 2.1-.923zm-7.444 2.64c-1.444-1.35-2.165-3.126-2.165-5.33 0-2.205.72-3.97 2.154-5.292 1.435-1.324 3.21-1.987 5.33-1.987 2.118 0 3.89.664 5.317 1.988 1.427 1.323 2.14 3.087 2.14 5.29 0 2.206-.71 3.982-2.126 5.332-1.418 1.35-3.187 2.024-5.304 2.024-2.12 0-3.9-.675-5.344-2.024M-112.803 493.265h4.664l3.256 10.635 3.255-10.635h4.665l-5.074 14.3h-5.69l-5.073-14.3M-87.51 497.48c-.513-.417-1.12-.627-1.82-.627s-1.29.21-1.768.628c-.478.42-.777.96-.896 1.628h5.355c-.068-.667-.358-1.208-.87-1.627zm-1.87 10.264c-2.085 0-3.793-.67-5.125-2.01-1.334-1.343-2-3.124-2-5.345 0-2.22.662-3.99 1.986-5.305 1.325-1.315 3.04-1.974 5.14-1.974 2.1 0 3.844.65 5.227 1.95 1.384 1.298 2.075 3.1 2.075 5.406 0 .497-.033.958-.102 1.384h-9.84c.085.633.367 1.15.846 1.55.478.403.995.603 1.55.603s.97-.055 1.243-.167c.272-.11.472-.222.6-.333.13-.11.296-.294.5-.55h4.74c-.41 1.435-1.23 2.592-2.46 3.47-1.23.88-2.69 1.32-4.38 1.32M-75.39 493.265v2.665c1.026-1.88 2.392-2.82 4.1-2.82v4.46h-1.075c-1.01 0-1.765.24-2.27.718-.503.478-.754 1.316-.754 2.51v6.767h-4.38v-14.3h4.38M-70.393 497.57c0-1.264.54-2.322 1.615-3.177 1.077-.854 2.533-1.282 4.37-1.282 1.835 0 3.318.42 4.445 1.258 1.128.837 1.725 1.98 1.794 3.433h-4.484c-.05-.494-.22-.83-.512-1.01-.29-.18-.727-.27-1.307-.27-1.145 0-1.717.35-1.717 1.05 0 .633.7 1.07 2.1 1.308 1.42.238 2.71.606 3.87 1.1.6.24 1.1.638 1.5 1.193.4.556.602 1.235.602 2.04 0 1.33-.572 2.42-1.717 3.265-1.144.846-2.588 1.27-4.33 1.27-1.743 0-3.195-.4-4.356-1.192-1.164-.795-1.795-1.97-1.898-3.524h4.484c.12.87.735 1.306 1.845 1.306.514 0 .937-.12 1.27-.358.334-.24.5-.548.5-.923 0-.376-.278-.675-.833-.897-.556-.222-1.226-.41-2.012-.564-.785-.154-1.576-.346-2.37-.576-.795-.232-1.47-.633-2.025-1.205-.555-.573-.833-1.32-.833-2.243M-55.71 507.565v-14.3h4.382v14.3h-4.38zm4-17.164c-.498.496-1.104.744-1.82.744-.72 0-1.325-.248-1.82-.743-.496-.494-.744-1.105-.744-1.83 0-.727.248-1.337.744-1.834.495-.495 1.1-.742 1.82-.742.716 0 1.322.247 1.82.742.494.497.74 1.107.74 1.833 0 .725-.246 1.336-.74 1.83M-32.108 503.03c.632-.616.948-1.487.948-2.615 0-1.127-.316-1.995-.948-2.6-.632-.607-1.358-.91-2.178-.91-.82 0-1.547.306-2.18.92-.63.616-.947 1.488-.947 2.615 0 1.128.317 1.995.948 2.6.632.61 1.36.91 2.18.91.82 0 1.545-.306 2.177-.92zm-7.867 2.664c-1.265-1.366-1.896-3.118-1.896-5.254 0-2.135.63-3.89 1.895-5.265 1.264-1.375 2.806-2.064 4.625-2.064 1.82 0 3.216.676 4.19 2.026v-1.87h4.382v14.3h-4.382v-2.077c-1.06 1.503-2.478 2.254-4.254 2.254-1.777 0-3.297-.683-4.56-2.05M-17.53 492.906v-3.33h14.196v3.33h-4.92v14.66h-4.38v-14.66h-4.896M7.352 503.08c.58-.615.872-1.502.872-2.665 0-1.16-.3-2.046-.898-2.652-.597-.607-1.306-.91-2.126-.91-.82 0-1.525.303-2.115.91-.59.606-.884 1.49-.884 2.652 0 1.163.305 2.05.91 2.665.607.615 1.32.923 2.14.923.82 0 1.52-.308 2.102-.923zm-7.445 2.64c-1.443-1.35-2.165-3.126-2.165-5.33 0-2.205.718-3.97 2.153-5.292 1.435-1.324 3.21-1.987 5.33-1.987s3.89.664 5.317 1.988c1.427 1.323 2.14 3.087 2.14 5.29 0 2.206-.708 3.982-2.127 5.332-1.418 1.35-3.186 2.024-5.304 2.024-2.118 0-3.9-.675-5.343-2.024M19.37 493.265v2.665c1.026-1.88 2.392-2.82 4.1-2.82v4.46h-1.075c-1.01 0-1.765.24-2.27.718-.503.478-.754 1.316-.754 2.51v6.767h-4.38v-14.3h4.38M25.34 507.565v-14.3h4.384v14.3H25.34zm4-17.164c-.496.496-1.103.744-1.82.744-.718 0-1.325-.248-1.82-.743-.495-.494-.743-1.105-.743-1.83 0-.727.248-1.337.743-1.834.495-.495 1.102-.742 1.82-.742.717 0 1.324.247 1.82.742.494.497.742 1.107.742 1.833 0 .725-.248 1.336-.743 1.83M37.436 493.265v2.1c.906-1.5 2.35-2.254 4.33-2.254 1.64 0 2.97.55 3.986 1.64 1.017 1.095 1.525 2.58 1.525 4.46v8.355H42.92V499.8c0-.922-.243-1.636-.73-2.14-.486-.504-1.158-.756-2.01-.756-.856 0-1.526.252-2.013.756-.487.504-.73 1.218-.73 2.14v7.765h-4.382v-14.3h4.38M59.065 503.08c.58-.615.87-1.502.87-2.665 0-1.16-.3-2.046-.896-2.652-.6-.607-1.308-.91-2.128-.91-.82 0-1.525.303-2.115.91-.588.606-.883 1.49-.883 2.652 0 1.163.303 2.05.91 2.665.606.615 1.32.923 2.14.923.82 0 1.52-.308 2.1-.923zm-7.445 2.64c-1.444-1.35-2.165-3.126-2.165-5.33 0-2.205.717-3.97 2.152-5.292 1.435-1.324 3.212-1.987 5.33-1.987 2.12 0 3.892.664 5.318 1.988 1.426 1.323 2.14 3.087 2.14 5.29 0 2.206-.71 3.982-2.128 5.332-1.417 1.35-3.186 2.024-5.303 2.024-2.12 0-3.9-.675-5.344-2.024" fill="#fff"/><path d="M36.62 439.554c-1.873 0-3.69.367-5.405 1.092-.824.35-1.618.78-2.36 1.282-.735.496-1.425 1.066-2.053 1.693-.627.628-1.196 1.32-1.692 2.053-.503.742-.933 1.536-1.28 2.36-.726 1.715-1.094 3.533-1.094 5.406 0 1.87.368 3.69 1.093 5.405.347.824.777 1.618 1.28 2.36.496.734 1.065 1.425 1.692 2.053.628.626 1.318 1.196 2.053 1.692.742.5 1.536.933 2.36 1.28 1.714.726 3.532 1.094 5.406 1.094 1.874 0 3.692-.368 5.406-1.093.824-.347 1.618-.78 2.36-1.28.735-.496 1.425-1.066 2.053-1.692.626-.628 1.195-1.32 1.69-2.053.504-.742.934-1.536 1.282-2.36.725-1.715 1.093-3.534 1.093-5.406 0-1.874-.368-3.692-1.093-5.407-.348-.824-.778-1.618-1.28-2.36-.497-.734-1.066-1.425-1.693-2.052-.63-.626-1.32-1.196-2.054-1.692-.742-.502-1.536-.933-2.36-1.282-1.714-.725-3.532-1.092-5.405-1.092zm0 4.317c5.285 0 9.57 4.285 9.57 9.57 0 5.283-4.285 9.566-9.57 9.566-5.284 0-9.568-4.283-9.568-9.567 0-5.285 4.284-9.57 9.57-9.57" fill="#fff"/></svg>