<svg xmlns="http://www.w3.org/2000/svg" viewBox="0 0 91.599998 36.599998" width="91.6" height="36.6"><path d="M80.8 21.6v4.5H66.2c-1 0-2-.1-3-.4-3.1-.9-5.6-3.1-7-6 0-.1-.1-.1-.1-.2-.1-.3-.3-.7-.4-1-.4-1.1-.6-2.3-.6-3.5V0h8v4.7h5.4v8.1h-5.4V15c0 1 .4 1.9 1.1 2.5.6.6 1.6 1 2.5 1h7.9l6.2 3.1z" fill="#f29323"/><path d="M27.7 7.5c-1.6-1.9-3.8-2.9-6.4-2.9-2.1 0-4.2 1-6.3 3-1.9-2-4-3-6.4-3-2.3 0-4.3.8-5.9 2.5-1.6 1.7-2.4 3.7-2.4 6v13h8V13.7c0-.7.6-1.3 1.3-1.3.7 0 1.3.6 1.3 1.3v12.4h8V13.7c0-.7.6-1.3 1.3-1.3.7 0 1.3.6 1.3 1.3v12.4h8.1V14c0-2.8-.7-5-1.9-6.5z" fill="#3c8fcd"/><path d="M53.4 15.4zm0 0c-.2-5.9-5-10.7-11-10.7-6.1 0-11 4.9-11 11s4.9 11 11 11c.6 0 1.2-.1 1.8-.1v-7.8c-.5.3-1.1.5-1.8.5-2 0-3.6-1.6-3.6-3.6s1.6-3.6 3.6-3.6 3.6 1.6 3.6 3.6v10.4h7.5V15.7c-.1-.1-.1-.2-.1-.3z" fill="#75b7e5"/><path d="M45.9 15.6c0 .1 0 .1 0 0z" fill="#fff"/><path d="M57.4 20.8c0-.1 0-.1-.1-.2 0 .1 0 .1.1.2z" fill="#3c8fcd"/><path d="M80.8 4.6c-5.9 0-10.7 4.8-10.7 10.7 0 5.9 4.8 10.7 10.7 10.7 5.9 0 10.7-4.8 10.7-10.7 0-5.9-4.8-10.7-10.7-10.7zm0 14.6c-2 0-3.7-1.7-3.7-3.7s1.7-3.7 3.7-3.7 3.7 1.7 3.7 3.7c0 2.1-1.7 3.7-3.7 3.7z" fill="#ffd107"/><path d="M80.8 11.9c2 0 3.7 1.7 3.7 3.7s-1.7 3.7-3.7 3.7-3.7-1.7-3.7-3.7 1.7-3.7 3.7-3.7m0-1.7c-.7 0-1.4.1-2.1.4-.3.1-.6.3-.9.5-.3.2-.6.4-.8.7-.2.2-.5.5-.7.8-.2.3-.4.6-.5.9-.3.7-.4 1.4-.4 2.1 0 .7.1 1.4.4 2.1.1.3.3.6.5.9.2.3.4.6.7.8.2.2.5.5.8.7.3.2.6.4.9.5.7.3 1.4.4 2.1.4.7 0 1.4-.1 2.1-.4.3-.1.6-.3.9-.5.3-.2.6-.4.8-.7.2-.2.5-.5.7-.8.2-.3.4-.6.5-.9.3-.7.4-1.4.4-2.1 0-.7-.1-1.4-.4-2.1-.1-.3-.3-.6-.5-.9-.2-.3-.4-.6-.7-.8-.3-.2-.5-.5-.8-.7-.3-.2-.6-.4-.9-.5-.7-.3-1.4-.4-2.1-.4zM1.9 30.9v.8c.3-.6.9-.9 1.7-.9.4 0 .8.1 1.1.3.3.2.6.4.7.8.2-.3.5-.6.8-.8.3-.2.7-.3 1.1-.3.7 0 1.2.2 1.6.6.4.4.6 1 .6 1.7v3.2H7.8v-3c0-.4-.1-.6-.3-.8-.2-.2-.4-.3-.8-.3-.3 0-.6.1-.8.3-.2.2-.3.5-.3.8v3H3.9v-3c0-.4-.1-.6-.3-.8-.2-.2-.4-.3-.8-.3-.3 0-.6.1-.8.3-.2.2-.3.5-.3.8v3H0v-5.5h1.9zm12.6 0h1.7v5.5h-1.7v-.8c-.4.6-.9.9-1.7.9-.6 0-1.1-.2-1.5-.6-.4-.4-.6-1-.6-1.7V31h1.7v3c0 .4.1.6.3.8.2.2.4.3.8.3.3 0 .6-.1.8-.3.2-.2.3-.5.3-.8v-3.1zm3.4 4.9c-.6-.5-.8-1.2-.8-2.1 0-.9.3-1.5.8-2 .6-.5 1.2-.8 2.1-.8.8 0 1.5.3 2.1.8.6.5.8 1.2.8 2 0 .9-.3 1.5-.8 2.1-.5.5-1.2.8-2.1.8-.8-.1-1.5-.3-2.1-.8zm2.9-1.1c.2-.2.3-.6.3-1s-.1-.8-.3-1c-.2-.2-.5-.4-.8-.4-.3 0-.6.1-.8.4-.2.2-.3.6-.3 1s.1.8.4 1c.2.2.5.4.8.4.3 0 .5-.1.7-.4zm2.3-3.8h1.8l1.2 4.2 1.3-4.2h1.8l-2 5.6H25m7.1 0c-.8 0-1.5-.3-2-.8s-.8-1.2-.8-2.1c0-.9.3-1.5.8-2.1.5-.5 1.2-.8 2-.8s1.5.3 2 .8.8 1.2.8 2.1v.5h-3.8c0 .2.1.4.3.6.2.2.4.2.6.2.2 0 .4 0 .5-.1.1 0 .2-.1.2-.1l.2-.2h1.8c-.2.6-.5 1-1 1.3-.4.6-.9.7-1.6.7zm.7-3.9c-.2-.2-.4-.2-.7-.2-.3 0-.5.1-.7.2-.2.2-.3.4-.3.6h2.1c-.1-.3-.2-.5-.4-.6zm4.7-1.7v1c.4-.7.9-1.1 1.6-1.1v1.7h-.4c-.4 0-.7.1-.9.3-.2.2-.3.5-.3 1v2.6h-1.7v-5.5h1.7zm1.9 1.7c0-.5.2-.9.6-1.2.4-.3 1-.5 1.7-.5s1.3.2 1.7.5c.4.3.7.8.7 1.3h-1.7c0-.2-.1-.3-.2-.4-.1-.1-.3-.1-.5-.1-.4 0-.7.1-.7.4 0 .2.3.4.8.5.5.1 1 .2 1.5.4.2.1.4.2.6.5.2.2.2.5.2.8 0 .5-.2.9-.7 1.3-.4.3-1 .5-1.7.5s-1.2-.2-1.7-.5c-.4-.3-.7-.8-.7-1.4H41c0 .3.3.5.7.5.2 0 .4 0 .5-.1.1-.1.2-.2.2-.4 0-.1-.1-.3-.3-.3-.2-.1-.5-.2-.8-.2-.3-.1-.6-.1-.9-.2-.3-.1-.6-.2-.8-.5-.1-.2-.2-.5-.2-.9zm7.3-2.8c-.2.2-.4.3-.7.3-.3 0-.5-.1-.7-.3-.2-.2-.3-.4-.3-.7 0-.3.1-.5.3-.7.2-.2.4-.3.7-.3.3 0 .5.1.7.3.2.2.3.4.3.7-.1.3-.1.5-.3.7zm-1.6 6.7V31h1.7v5.5h-1.7zm6.1-.8c-.5-.5-.7-1.2-.7-2s.2-1.5.7-2c.5-.5 1.1-.8 1.8-.8s1.2.3 1.6.8V31h1.7v5.5h-1.7v-.8c-.4.6-1 .9-1.6.9-.7-.1-1.3-.3-1.8-.9zm3-1c.2-.2.4-.6.4-1s-.1-.8-.4-1c-.2-.2-.5-.4-.8-.4-.3 0-.6.1-.8.4-.2.2-.4.6-.4 1s.1.8.4 1c.2.2.5.4.8.4.3 0 .6-.1.8-.4zm5.7-3.9v-1.3h5.5v1.3h-1.9v5.7h-1.7v-5.7m4.8 5c-.6-.5-.8-1.2-.8-2.1 0-.9.3-1.5.8-2 .6-.5 1.2-.8 2.1-.8.8 0 1.5.3 2.1.8.6.5.8 1.2.8 2 0 .9-.3 1.5-.8 2.1-.5.5-1.2.8-2.1.8-.8-.1-1.5-.3-2.1-.8zm2.9-1.1c.2-.2.3-.6.3-1s-.1-.8-.3-1c-.2-.2-.5-.4-.8-.4-.3 0-.6.1-.8.4-.2.2-.3.6-.3 1s.1.8.4 1c.2.2.5.4.8.4.2 0 .5-.1.7-.4zm4.6-3.8v1c.4-.7.9-1.1 1.6-1.1v1.7h-.4c-.4 0-.7.1-.9.3-.2.2-.3.5-.3 1v2.6h-1.7v-5.5h1.7zm3.9-1.1c-.2.2-.4.3-.7.3-.3 0-.5-.1-.7-.3-.2-.2-.3-.4-.3-.7 0-.3.1-.5.3-.7.2-.2.4-.3.7-.3.3 0 .5.1.7.3.2.2.3.4.3.7 0 .3-.1.5-.3.7zm-1.6 6.7V31h1.7v5.5h-1.7zm4.7-5.6v.8c.3-.6.9-.9 1.7-.9.6 0 1.1.2 1.5.6.4.4.6 1 .6 1.7v3.2h-1.7v-3c0-.4-.1-.6-.3-.8-.2-.2-.4-.3-.8-.3-.3 0-.6.1-.8.3-.2.2-.3.5-.3.8v3h-1.7v-5.5h1.8zm5.5 4.9c-.6-.5-.8-1.2-.8-2.1 0-.9.3-1.5.8-2 .6-.5 1.2-.8 2.1-.8.8 0 1.5.3 2.1.8.6.5.8 1.2.8 2 0 .9-.3 1.5-.8 2.1-.5.5-1.2.8-2.1.8-.9-.1-1.5-.3-2.1-.8zm2.9-1.1c.2-.2.3-.6.3-1s-.1-.8-.3-1c-.2-.2-.5-.4-.8-.4-.3 0-.6.1-.8.4-.2.2-.3.6-.3 1s.1.8.4 1c.2.2.5.4.8.4.2 0 .5-.1.7-.4z" fill="#1d1e1c"/></svg>